<svg width="37" height="61" viewBox="0 0 37 61" fill="none" xmlns="http://www.w3.org/2000/svg">
<path d="M12.1601 16.112H17.6641C18.4321 12.528 19.2001 9.07197 20.6721 6.44797C22.3361 3.43997 24.9601 0.495972 30.4641 0.495972C34.3681 0.495972 36.5441 2.41597 36.5441 5.16797C36.5441 7.02397 35.3281 7.98397 33.9841 7.98397C32.2561 7.98397 31.6161 6.83197 31.4241 5.48797C31.1681 3.88797 31.0401 2.35197 29.5041 2.35197C26.2401 2.35197 24.6401 6.12797 23.6801 11.568L22.9121 16.112H28.9921L28.6081 18.736H22.5921L18.9441 40.56C18.0481 46.064 15.1041 60.4 6.33614 60.4C2.24014 60.4 0.640137 58.032 0.640137 55.792C0.640137 54 1.53614 52.656 3.20014 52.656C7.04014 52.656 4.92814 58.352 7.36014 58.352C10.7521 58.352 12.4161 47.856 13.1201 43.632L17.2801 18.736H11.9041L12.1601 16.112Z" fill="#0381C8"/>
</svg>
