<svg width="1129" height="663" viewBox="0 0 1129 663" fill="none" xmlns="http://www.w3.org/2000/svg">
<path opacity="0.1" d="M882.125 630.68C902.628 630.624 922.513 623.646 938.555 610.878C952.083 621.426 968.306 627.954 985.369 629.716C1002.43 631.478 1019.65 628.404 1035.04 620.843C1050.44 613.283 1063.4 601.543 1072.44 586.965C1081.48 572.386 1086.24 555.559 1086.16 538.405C1086.09 521.251 1081.19 504.465 1072.03 489.964C1062.87 475.463 1049.81 463.833 1034.34 456.404C1018.88 448.976 1001.64 446.048 984.595 447.955C967.548 449.862 951.381 456.528 937.944 467.19C922.339 455.006 871.866 630.723 882.125 630.68Z" fill="black"/>
<path d="M321 642C498.283 642 642 498.283 642 321C642 143.717 498.283 0 321 0C143.717 0 0 143.717 0 321C0 498.283 143.717 642 321 642Z" fill="#F2F2F2"/>
<path d="M559 663C842.874 663 1073 650.688 1073 635.5C1073 620.312 842.874 608 559 608C275.126 608 45 620.312 45 635.5C45 650.688 275.126 663 559 663Z" fill="#3F3D56"/>
<path opacity="0.2" d="M558 649C812.051 649 1018 639.15 1018 627C1018 614.85 812.051 605 558 605C303.949 605 98 614.85 98 627C98 639.15 303.949 649 558 649Z" fill="black"/>
<path d="M971 152.5H131V202.5H971V152.5Z" fill="#3F3D56"/>
<path d="M131 608.83C131 611.676 131.561 614.494 132.65 617.123C133.739 619.752 135.335 622.141 137.347 624.153C139.359 626.165 141.748 627.761 144.377 628.85C147.006 629.939 149.824 630.5 152.67 630.5H949.33C952.176 630.5 954.994 629.939 957.623 628.85C960.252 627.761 962.641 626.165 964.653 624.153C966.665 622.141 968.261 619.752 969.35 617.123C970.439 614.494 971 611.676 971 608.83V177.5H131V608.83Z" fill="#E7E7E7"/>
<path d="M949.33 117.5H152.67C149.824 117.5 147.006 118.061 144.377 119.15C141.748 120.239 139.359 121.835 137.347 123.847C135.335 125.859 133.739 128.248 132.65 130.877C131.561 133.506 131 136.324 131 139.17V177.5H971V139.17C971 136.324 970.439 133.506 969.35 130.877C968.261 128.248 966.665 125.859 964.653 123.847C962.641 121.835 960.252 120.239 957.623 119.15C954.994 118.061 952.176 117.5 949.33 117.5Z" fill="#606060"/>
<path opacity="0.2" d="M949.33 117.5H152.67C149.824 117.5 147.006 118.061 144.377 119.15C141.748 120.239 139.359 121.835 137.347 123.847C135.335 125.859 133.739 128.248 132.65 130.877C131.561 133.506 131 136.324 131 139.17V177.5H971V139.17C971 136.324 970.439 133.506 969.35 130.877C968.261 128.248 966.665 125.859 964.653 123.847C962.641 121.835 960.252 120.239 957.623 119.15C954.994 118.061 952.176 117.5 949.33 117.5Z" fill="#606060"/>
<path d="M181 160.5C188.18 160.5 194 154.68 194 147.5C194 140.32 188.18 134.5 181 134.5C173.82 134.5 168 140.32 168 147.5C168 154.68 173.82 160.5 181 160.5Z" fill="#3F3D56"/>
<path d="M217 160.5C224.18 160.5 230 154.68 230 147.5C230 140.32 224.18 134.5 217 134.5C209.82 134.5 204 140.32 204 147.5C204 154.68 209.82 160.5 217 160.5Z" fill="#3F3D56"/>
<path d="M253 160.5C260.18 160.5 266 154.68 266 147.5C266 140.32 260.18 134.5 253 134.5C245.82 134.5 240 140.32 240 147.5C240 154.68 245.82 160.5 253 160.5Z" fill="#3F3D56"/>
<path d="M499.665 214H173.335C170.389 214 168 216.389 168 219.335V594.665C168 597.611 170.389 600 173.335 600H499.665C502.611 600 505 597.611 505 594.665V219.335C505 216.389 502.611 214 499.665 214Z" fill="#F2F2F2"/>
<path d="M815.524 276H542.476C539.452 276 537 278.452 537 281.476V292.524C537 295.548 539.452 298 542.476 298H815.524C818.548 298 821 295.548 821 292.524V281.476C821 278.452 818.548 276 815.524 276Z" fill="#3FA4C9"/>
<path d="M947.524 231H542.476C539.452 231 537 233.452 537 236.476V240.524C537 243.548 539.452 246 542.476 246H947.524C950.548 246 953 243.548 953 240.524V236.476C953 233.452 950.548 231 947.524 231Z" fill="#3F3D56"/>
<path d="M947.524 328H542.476C539.452 328 537 330.452 537 333.476V337.524C537 340.548 539.452 343 542.476 343H947.524C950.548 343 953 340.548 953 337.524V333.476C953 330.452 950.548 328 947.524 328Z" fill="#3F3D56"/>
<path d="M947.524 373H542.476C539.452 373 537 375.452 537 378.476V382.524C537 385.548 539.452 388 542.476 388H947.524C950.548 388 953 385.548 953 382.524V378.476C953 375.452 950.548 373 947.524 373Z" fill="#3F3D56"/>
<path d="M308.374 344.285H332.442C335.8 328.613 339.159 313.501 345.595 302.027C352.872 288.873 364.346 276 388.414 276C405.485 276 415 284.396 415 296.43C415 304.545 409.683 308.743 403.806 308.743C396.25 308.743 393.451 303.706 392.611 297.829C391.492 290.832 390.932 284.116 384.216 284.116C369.943 284.116 362.947 300.627 358.749 324.415L355.39 344.285H381.977L380.298 355.759H353.991L338.039 451.191C334.121 475.258 321.248 537.947 282.907 537.947C264.996 537.947 258 527.592 258 517.797C258 509.961 261.918 504.084 269.194 504.084C285.986 504.084 276.75 528.991 287.385 528.991C302.217 528.991 309.494 483.094 312.572 464.624L330.763 355.759H307.255L308.374 344.285Z" fill="#3FA4C9"/>
<rect x="537" y="420" width="416" height="180" rx="17.9892" fill="#F2F2F2"/>
<path d="M594.036 435H545.964C545.432 435 545 438.566 545 442.966V459.034C545 463.434 545.432 467 545.964 467H594.036C594.568 467 595 463.434 595 459.034V442.966C595 438.566 594.568 435 594.036 435Z" fill="#3F97C9"/>
<path d="M783.645 521H616.355C614.502 521 613 523.898 613 527.472V540.528C613 544.102 614.502 547 616.355 547H783.645C785.498 547 787 544.102 787 540.528V527.472C787 523.898 785.498 521 783.645 521Z" fill="#A8A8A8"/>
<path d="M811.802 558H702.198C700.984 558 700 560.898 700 564.472V577.528C700 581.102 700.984 584 702.198 584H811.802C813.016 584 814 581.102 814 577.528V564.472C814 560.898 813.016 558 811.802 558Z" fill="#A8A8A8"/>
<path d="M673.804 435H614.196C613.535 435 613 438.566 613 442.966V459.034C613 463.434 613.535 467 614.196 467H673.804C674.465 467 675 463.434 675 459.034V442.966C675 438.566 674.465 435 673.804 435Z" fill="#A8A8A8"/>
<path d="M677.727 558H614.273C613.57 558 613 560.898 613 564.472V577.528C613 581.102 613.57 584 614.273 584H677.727C678.43 584 679 581.102 679 577.528V564.472C679 560.898 678.43 558 677.727 558Z" fill="#3F97C9"/>
<path d="M938.598 478H619.402C615.866 478 613 481.566 613 485.966V502.034C613 506.434 615.866 510 619.402 510H938.598C942.134 510 945 506.434 945 502.034V485.966C945 481.566 942.134 478 938.598 478Z" fill="#C93F9A"/>
</svg>
