<svg width="196" height="196" viewBox="0 0 196 196" fill="none" xmlns="http://www.w3.org/2000/svg">
<g clip-path="url(#clip0_306_19555)">
<g clip-path="url(#clip1_306_19555)">
<path fill-rule="evenodd" clip-rule="evenodd" d="M40.9609 8.42188C19.8188 8.42188 2.67969 25.561 2.67969 46.7031V107.188C2.67969 128.33 19.8188 145.469 40.9609 145.469H45.7256V135.541H37.2044C30.6791 135.541 24.4214 132.916 19.8122 128.243C15.2031 123.57 12.6202 117.236 12.6329 110.633V43.2657C12.6238 36.6672 15.2092 30.3367 19.8184 25.6676C24.4275 20.9984 30.6814 18.3753 37.2044 18.3753H158.796L158.796 18.375C165.319 18.375 171.573 20.9983 176.182 25.6672C180.791 30.3361 183.376 36.6665 183.367 43.2653V110.633C183.38 117.226 180.804 123.554 176.206 128.225C171.606 132.896 165.361 135.528 158.845 135.541H89.0453L78.4392 145.469H155.039C176.181 145.469 193.32 128.33 193.32 107.188V46.7031C193.32 25.561 176.181 8.42188 155.039 8.42188H40.9609ZM63.7557 145.469L82.312 128.177L85.1575 125.499H158.796C162.684 125.494 166.411 123.927 169.158 121.143C171.904 118.359 173.444 114.585 173.44 110.652L173.441 43.2661C173.435 39.3393 171.892 35.5731 169.146 32.7968C166.401 30.0191 162.679 28.4573 158.797 28.4522H37.2048C33.3231 28.4574 29.6002 30.0191 26.8557 32.7968C24.11 35.5731 22.566 39.339 22.561 43.2661V110.634C22.5519 114.571 24.0909 118.348 26.8379 121.136C29.5849 123.925 33.3141 125.494 37.2048 125.499H55.655V145.469H63.7557Z" fill="#0882FE" fill-opacity="0.24"/>
<circle cx="110.685" cy="73.7446" r="12.1939" fill="#CBFFA9"/>
<circle cx="84.942" cy="46.3761" r="10.839" fill="#FF9B9B"/>
<circle cx="80.6066" cy="104.907" r="10.839" fill="#FFD6A5"/>
<path fill-rule="evenodd" clip-rule="evenodd" d="M23.0118 359.054H12.8476L-26.3468 419.655C-33.0806 430.08 -33.5841 443.316 -27.6527 454.21C-21.7214 465.107 -10.3357 471.872 2.07238 471.872H194.08C206.488 471.872 217.881 465.104 223.805 454.207C229.74 443.313 229.237 430.077 222.495 419.66L222.494 419.659L183.299 359.054H173.117L160.398 339.387C159.789 339.576 159.24 339.81 158.581 340.102L158.565 340.109C156.747 340.903 154.481 341.892 150.326 341.892C146.18 341.892 143.918 340.907 142.098 340.114L142.071 340.102C140.598 339.455 139.622 339.027 137.244 339.027C134.867 339.027 133.894 339.451 132.422 340.102L132.406 340.109C130.588 340.903 128.322 341.892 124.167 341.892C120.013 341.892 117.75 340.9 115.93 340.101L115.923 340.098L115.893 340.085C114.433 339.449 113.465 339.027 111.104 339.027C110.188 339.027 109.397 339.095 108.708 339.239C106.399 339.723 104.135 338.236 103.651 335.923C103.17 333.618 104.662 331.354 106.967 330.874C108.235 330.605 109.586 330.48 111.104 330.48C115.271 330.48 117.535 331.472 119.356 332.274L119.38 332.285C120.839 332.923 121.806 333.345 124.166 333.345C126.544 333.345 127.513 332.922 128.993 332.27C130.813 331.472 133.081 330.48 137.244 330.48C141.412 330.48 143.679 331.472 145.5 332.27L145.505 332.273C146.978 332.919 147.951 333.345 150.326 333.345C152.703 333.345 153.679 332.922 155.152 332.27C155.172 332.262 155.192 332.254 155.212 332.246C155.247 332.232 155.283 332.217 155.319 332.203L155.326 332.2L155.331 332.198C155.443 332.153 155.558 332.107 155.663 332.059L134.889 299.938C128.254 289.67 124.745 277.788 124.745 265.558V173.824H89.4403C87.086 173.824 85.1745 171.913 85.1745 169.551C85.1745 167.197 87.0821 165.285 89.4403 165.285L139.878 165.281C145.635 165.281 150.317 160.596 150.317 154.835C150.317 149.077 145.632 144.388 139.878 144.388H56.2717C50.511 144.388 45.8288 149.073 45.8288 154.835C45.8288 160.592 50.5107 165.281 56.2717 165.281H67.1352C69.4895 165.281 71.401 167.189 71.401 169.547V186.122H89.4332C91.7951 186.122 93.7067 188.033 93.7067 190.395C93.7067 192.75 91.7951 194.661 89.4332 194.661H71.401V210.419H89.4332C91.7951 210.419 93.7067 212.327 93.7067 214.685C93.7067 217.043 91.7951 218.958 89.4332 218.958H71.401V234.716H89.4332C91.7951 234.716 93.7067 236.632 93.7067 238.99C93.7067 241.344 91.7951 243.256 89.4332 243.256H71.401V259.014H89.4332C91.7951 259.014 93.7067 260.921 93.7067 263.279C93.7067 265.634 91.7951 267.545 89.4332 267.545H71.3283C71.1542 272.913 70.3518 278.208 68.8566 283.303H89.4324C91.7943 283.303 93.7059 285.215 93.7059 287.577C93.7059 289.927 91.7943 291.843 89.4324 291.843H65.6764C64.4045 294.625 62.9246 297.327 61.2477 299.924L40.4714 332.052C40.5212 332.073 40.5724 332.094 40.6239 332.115L40.6298 332.118C40.7448 332.165 40.8613 332.214 40.9672 332.26L40.9783 332.265C42.4445 332.906 43.4184 333.331 45.7781 333.331C46.6109 333.331 47.33 333.275 47.9546 333.157C50.2862 332.722 52.5043 334.259 52.9321 336.575C53.3636 338.899 51.8306 341.125 49.5141 341.553C48.3634 341.765 47.1407 341.871 45.7781 341.871C41.6242 341.871 39.3613 340.878 37.542 340.08L37.5341 340.076C36.8868 339.789 36.3455 339.554 35.7398 339.372L23.0118 359.054ZM63.1108 359.054H23.0118L-19.1754 424.289C-24.2097 432.079 -24.5882 441.977 -20.152 450.123C-15.7188 458.268 -7.20631 463.329 2.07111 463.329H194.079C203.357 463.329 211.873 458.276 216.302 450.123C220.738 441.98 220.359 432.078 215.321 424.315L173.117 359.054H93.4886C92.9085 357.385 91.3207 356.189 89.4505 356.189H67.148C65.2814 356.189 63.6922 357.387 63.1108 359.054ZM63.1108 359.054H93.4886C93.6411 359.493 93.724 359.964 93.724 360.455C93.724 362.81 91.8124 364.721 89.4505 364.721H67.148C64.7898 364.721 62.8745 362.813 62.8745 360.455C62.8745 359.965 62.9577 359.493 63.1108 359.054ZM67.148 307.594H89.4505C91.8124 307.594 93.724 309.506 93.724 311.868C93.724 314.218 91.8124 316.133 89.4505 316.133H67.148C64.7898 316.133 62.8745 314.226 62.8745 311.868C62.8745 309.509 64.7898 307.594 67.148 307.594ZM89.4505 331.897H67.148C64.7898 331.897 62.8745 333.812 62.8745 336.162C62.8745 338.524 64.7898 340.436 67.148 340.436H89.4505C91.8124 340.436 93.724 338.521 93.724 336.162C93.724 333.812 91.8124 331.897 89.4505 331.897ZM89.4505 380.482H67.148C64.7898 380.482 62.8745 382.398 62.8745 384.756C62.8745 387.114 64.7898 389.022 67.148 389.022H89.4505C91.8124 389.022 93.724 387.106 93.724 384.756C93.724 382.398 91.8124 380.482 89.4505 380.482ZM67.148 404.785H89.4505C91.8124 404.785 93.724 406.693 93.724 409.058C93.724 411.409 91.8124 413.324 89.4505 413.324H67.148C64.7898 413.324 62.8745 411.417 62.8745 409.058C62.8745 406.7 64.7898 404.785 67.148 404.785ZM89.4505 429.078H67.148C64.7898 429.078 62.8745 430.993 62.8745 433.344C62.8745 435.706 64.7898 437.617 67.148 437.617H89.4505C91.8124 437.617 93.724 435.702 93.724 433.344C93.724 430.993 91.8124 429.078 89.4505 429.078Z" fill="#F1F1F1"/>
<path d="M222.494 419.659L166.193 332.604C166.087 332.415 165.974 332.233 165.845 332.063L142.067 295.29C136.321 286.41 133.285 276.126 133.285 265.547V173.813H139.879C150.341 173.813 158.862 165.293 158.862 154.826C158.862 144.356 150.341 135.836 139.879 135.836H56.2765C45.8064 135.836 37.2899 144.356 37.2899 154.826C37.2899 165.3 45.8027 173.813 56.2765 173.813H62.874V265.543C62.874 276.118 59.8384 286.406 54.0925 295.286L30.2986 332.078C30.1889 332.222 30.0904 332.381 29.9958 332.54L-26.3468 419.655C-33.0806 430.08 -33.5841 443.316 -27.6527 454.21C-21.7214 465.107 -10.3357 471.872 2.07238 471.872H194.08C206.488 471.872 217.881 465.104 223.805 454.207C229.74 443.313 229.237 430.077 222.495 419.66L222.494 419.659ZM216.302 450.123C211.873 458.276 203.357 463.329 194.079 463.329H2.07111C-7.20631 463.329 -15.7188 458.268 -20.152 450.123C-24.5882 441.977 -24.2097 432.079 -19.1754 424.289L35.7398 339.372C36.3455 339.554 36.8868 339.789 37.5341 340.077C39.3547 340.875 41.6182 341.871 45.7781 341.871C47.1407 341.871 48.3634 341.765 49.5141 341.553C51.8306 341.125 53.3637 338.899 52.9321 336.575C52.5043 334.259 50.2862 332.722 47.9546 333.157C47.33 333.275 46.6109 333.331 45.7781 333.331C43.4124 333.331 42.4396 332.904 40.9672 332.26C40.812 332.192 40.6341 332.12 40.4714 332.052L61.2477 299.924C62.9246 297.327 64.4045 294.625 65.6764 291.843H89.4324C91.7943 291.843 93.7059 289.927 93.7059 287.577C93.7059 285.215 91.7943 283.303 89.4324 283.303H68.8566C70.3518 278.208 71.1542 272.913 71.3284 267.545H89.4332C91.7951 267.545 93.7067 265.634 93.7067 263.279C93.7067 260.921 91.7951 259.014 89.4332 259.014H71.401V243.256H89.4332C91.7951 243.256 93.7067 241.344 93.7067 238.99C93.7067 236.632 91.7951 234.716 89.4332 234.716H71.401V218.958H89.4332C91.7951 218.958 93.7067 217.043 93.7067 214.685C93.7067 212.327 91.7951 210.419 89.4332 210.419H71.401V194.661H89.4332C91.7951 194.661 93.7067 192.75 93.7067 190.395C93.7067 188.033 91.7951 186.122 89.4332 186.122H71.401V169.547C71.401 167.189 69.4895 165.281 67.1352 165.281H56.2717C50.5107 165.281 45.8288 160.592 45.8288 154.835C45.8288 149.074 50.511 144.388 56.2717 144.388H139.878C145.632 144.388 150.317 149.077 150.317 154.835C150.317 160.596 145.635 165.281 139.878 165.281L129.037 165.285H129.01H89.4403C87.0821 165.285 85.1745 167.197 85.1745 169.551C85.1745 171.913 87.086 173.824 89.4403 173.824H124.745V265.558C124.745 277.788 128.254 289.67 134.889 299.938L155.663 332.059C155.5 332.134 155.315 332.202 155.152 332.271C153.679 332.922 152.703 333.346 150.326 333.346C147.949 333.346 146.976 332.918 145.5 332.271C143.679 331.472 141.412 330.48 137.244 330.48C133.081 330.48 130.813 331.472 128.993 332.271C127.513 332.922 126.544 333.346 124.166 333.346C121.793 333.346 120.828 332.918 119.356 332.274C117.535 331.472 115.271 330.48 111.104 330.48C109.586 330.48 108.235 330.605 106.967 330.874C104.662 331.354 103.17 333.618 103.651 335.923C104.135 338.236 106.399 339.723 108.708 339.239C109.397 339.095 110.188 339.027 111.104 339.027C113.481 339.027 114.446 339.455 115.923 340.098C117.743 340.897 120.007 341.892 124.167 341.892C128.334 341.892 130.601 340.897 132.422 340.102C133.894 339.451 134.867 339.027 137.244 339.027C139.622 339.027 140.598 339.455 142.071 340.102C143.895 340.897 146.159 341.892 150.326 341.892C154.493 341.892 156.761 340.897 158.581 340.102C159.24 339.811 159.789 339.576 160.398 339.387L215.321 424.315C220.359 432.078 220.738 441.98 216.302 450.123Z" fill="#3A3A3A"/>
<path d="M80.862 120.177C89.146 120.177 95.8802 113.44 95.8802 105.159C95.8802 96.8818 89.1428 90.1409 80.862 90.1409C72.5847 90.1409 65.8438 96.8783 65.8438 105.159C65.8404 113.44 72.5812 120.177 80.862 120.177ZM80.862 97.8101C84.9174 97.8101 88.2146 101.107 88.2146 105.156C88.2146 109.204 84.9173 112.509 80.862 112.509C76.8135 112.509 73.5161 109.211 73.5161 105.156C73.5127 101.101 76.8101 97.8101 80.862 97.8101Z" fill="#3A3A3A"/>
<path d="M111.085 93.0509C121.654 93.0509 130.253 84.4507 130.253 73.8826C130.253 63.3138 121.653 54.7144 111.085 54.7144C100.513 54.7144 91.9164 63.3145 91.9164 73.8826C91.9164 84.4514 100.513 93.0509 111.085 93.0509ZM111.085 62.3862C117.424 62.3862 122.585 67.5429 122.585 73.8861C122.585 80.2292 117.425 85.386 111.085 85.386C104.745 85.386 99.5848 80.2259 99.5848 73.8861C99.5848 67.543 104.745 62.3862 111.085 62.3862Z" fill="#3A3A3A"/>
<path d="M84.6822 58.1126C91.2054 58.1126 96.5119 52.8063 96.5119 46.2829C96.5119 39.7596 91.1988 34.4531 84.6822 34.4531C78.1589 34.4531 72.8524 39.7594 72.8524 46.2829C72.8524 52.8027 78.1554 58.1126 84.6822 58.1126ZM84.6822 42.1189C86.9767 42.1189 88.8395 43.985 88.8395 46.2796C88.8395 48.5774 86.9733 50.4368 84.6822 50.4368C82.3877 50.4368 80.5215 48.5707 80.5215 46.2762C80.5215 43.9817 82.3843 42.1189 84.6822 42.1189Z" fill="#3A3A3A"/>
</g>
</g>
<defs>
<clipPath id="clip0_306_19555">
<rect width="196" height="196" fill="white"/>
</clipPath>
<clipPath id="clip1_306_19555">
<rect width="196" height="196" fill="white"/>
</clipPath>
</defs>
</svg>
