<svg width="1042" height="555" viewBox="0 0 1042 555" fill="none" xmlns="http://www.w3.org/2000/svg">
<g clip-path="url(#clip0_309_27079)">
<path d="M961.469 438.175C960.309 440.675 959.152 443.142 957.999 445.575C956.199 449.355 954.422 453.062 952.669 456.695C951.889 458.305 951.109 459.885 950.349 461.465C941.749 479.035 933.719 494.575 926.899 507.355C920.711 518.935 911.522 528.637 900.295 535.446C889.069 542.255 876.218 545.919 863.089 546.055L711.439 547.705H709.839L696.839 547.845L685.719 547.965L651.619 548.335H650.239L632.879 548.525H632.349L525.349 549.685L429.839 550.685L418.729 550.805L349.729 551.555H349.649L304.899 552.035H304.419L162.919 553.565L120.589 554.025C116.985 554.066 113.381 553.886 109.799 553.485C108.579 553.345 107.359 553.185 106.149 552.995C86.407 549.948 68.3051 540.228 54.859 525.455C36.649 505.425 23.399 482.055 14.499 456.695C13.2123 453.035 12.0123 449.328 10.899 445.575C-19.911 341.425 17.649 207.055 85.249 117.135C88.0823 113.375 90.9623 109.708 93.889 106.135L93.959 106.055C114.749 80.535 138.059 59.215 162.889 44.055C206.889 17.145 255.639 9.56497 303.589 32.155C344.159 51.275 382.039 60.265 418.759 62.705C422.469 62.945 426.179 63.125 429.869 63.235C514.099 65.885 593.039 35.535 685.739 15.945C689.429 15.165 693.129 14.395 696.859 13.665C762.989 0.504967 836.349 -6.43503 923.589 8.15497C932.653 9.63563 941.596 11.7746 950.349 14.555C954.196 15.795 957.902 17.1283 961.469 18.555C1003.11 35.495 1025.82 66.795 1035.47 106.015C1036.38 109.655 1037.17 113.358 1037.84 117.125C1054.95 211.465 1004.84 345.285 961.469 438.175Z" fill="#F2F2F2"/>
<path d="M477.171 392.53C474.076 389.434 474.076 384.431 477.171 381.335C495.195 363.232 505.12 339.332 505.12 313.925C505.12 288.518 495.195 264.619 477.171 246.595C475.584 245.008 474.869 243.023 474.869 240.959C474.869 238.894 475.663 236.909 477.171 235.322C480.267 232.226 485.27 232.226 488.366 235.322C509.408 256.361 521 284.231 521 313.926C521 343.622 509.408 371.49 488.446 392.531C485.35 395.629 480.269 395.629 477.171 392.531V392.53ZM454.701 358.785C466.77 346.796 473.361 330.837 473.361 313.926C473.361 297.015 466.77 281.056 454.701 269.067C451.605 265.971 451.605 260.968 454.701 257.872C457.797 254.776 462.8 254.776 465.896 257.872C480.983 272.798 489.241 292.727 489.241 313.927C489.241 335.128 480.983 355.055 465.977 370.062C462.882 373.158 457.879 373.158 454.783 370.062C453.195 368.475 452.48 366.49 452.48 364.425C452.48 362.361 453.193 360.376 454.701 358.787V358.785ZM457.481 313.926C457.481 326.631 452.557 338.54 443.586 347.591C440.49 350.687 435.488 350.766 432.391 347.67C430.804 346.083 430.009 344.098 430.009 342.034C430.009 340.049 430.804 337.984 432.312 336.476C444.301 324.328 444.301 303.527 432.312 291.458C429.216 288.362 429.216 283.28 432.391 280.263C435.487 277.167 440.569 277.247 443.586 280.342C452.557 289.312 457.481 301.221 457.481 313.926Z" fill="#B6B6B6"/>
<path d="M217.904 154.001C183.45 154.001 152.84 176.187 142.17 208.933C131.22 211.19 120.877 215.753 111.829 222.319C102.78 228.884 95.2334 237.302 89.6913 247.011C72.4113 276.877 76.3571 314.423 99.5067 340.022C92.3596 361.463 94.8125 384.926 106.227 404.341C123.401 434.313 157.957 449.673 191.772 442.526C199.176 450.882 208.276 457.563 218.466 462.125C228.656 466.686 239.701 469.023 250.865 468.979C285.319 468.979 315.93 446.793 326.599 414.047C348.785 409.459 367.879 395.592 378.972 375.969C396.358 346.103 392.412 308.557 369.266 282.958V282.852C372.797 272.254 374.024 261.024 372.865 249.914C371.706 238.803 368.188 228.068 362.546 218.427C345.369 188.561 310.809 173.197 277.103 180.344C269.665 172.01 260.54 165.352 250.335 160.81C240.129 156.268 229.075 153.947 217.904 154.001ZM217.904 174.482L217.798 174.588C231.665 174.588 244.999 179.388 255.665 188.243C255.238 188.455 254.384 188.988 253.745 189.309L191.028 225.468C187.827 227.282 185.907 230.695 185.907 234.429V319.332L158.921 303.761V233.575C158.915 217.919 165.124 202.902 176.183 191.821C187.243 180.74 202.248 174.506 217.904 174.482ZM293.457 199.2C303.85 199.18 314.065 201.904 323.068 207.098C332.071 212.291 339.543 219.768 344.73 228.775C351.556 240.722 354.114 254.695 351.767 268.241C351.34 267.92 350.49 267.496 349.953 267.175L287.236 230.907C285.658 230.014 283.876 229.545 282.063 229.545C280.251 229.545 278.469 230.014 276.891 230.907L203.398 273.358V242.211L264.09 207.118C273.013 201.945 283.142 199.213 293.457 199.196V199.2ZM138.334 231.44V305.998C138.334 309.732 140.254 313.039 143.455 314.959L216.838 357.305L189.743 372.983L129.157 337.996C115.618 330.149 105.745 317.251 101.706 302.132C97.6665 287.013 99.7914 270.909 107.614 257.356C114.514 245.395 125.382 236.229 138.334 231.44ZM278.917 249.891L339.609 284.878C367.876 301.198 377.472 337.251 361.152 365.518L361.258 365.624C354.326 377.571 343.445 386.744 330.538 391.438V316.876C330.538 313.142 328.618 309.729 325.416 307.918L251.927 265.463L278.917 249.891ZM234.33 275.6L265.265 293.518V329.25L234.33 347.169L203.398 329.25V293.518L234.33 275.6ZM282.969 303.761L309.954 319.332V389.412C309.954 422.052 283.501 448.505 250.971 448.505V448.399C237.21 448.399 223.77 443.599 213.21 434.748C213.637 434.536 214.597 433.999 215.13 433.678L277.847 397.519C281.049 395.705 283.074 392.292 282.965 388.558L282.969 303.761ZM265.367 349.625V380.769L204.676 415.756C176.409 431.97 140.356 422.37 124.036 394.209H124.142C117.21 382.367 114.753 368.289 117.1 354.743C117.527 355.064 118.382 355.487 118.915 355.809L181.632 392.077C183.21 392.969 184.992 393.438 186.804 393.438C188.617 393.438 190.399 392.969 191.977 392.077L265.367 349.625Z" fill="#DADADA"/>
<circle cx="254.723" cy="301.846" r="19.504" fill="#CBFFA9"/>
<circle cx="213.548" cy="258.07" r="17.3369" fill="#FF9B9B"/>
<circle cx="206.613" cy="351.689" r="17.3369" fill="#FFD6A5"/>
<path d="M207.021 376.115C220.272 376.115 231.043 365.338 231.043 352.093C231.043 338.854 220.266 328.072 207.021 328.072C193.782 328.072 183 338.848 183 352.093C182.995 365.338 193.776 376.115 207.021 376.115ZM207.021 340.339C213.508 340.339 218.782 345.613 218.782 352.088C218.782 358.564 213.508 363.849 207.021 363.849C200.546 363.849 195.272 358.575 195.272 352.088C195.266 345.602 200.54 340.339 207.021 340.339Z" fill="#606060"/>
<path d="M255.362 332.726C272.267 332.726 286.022 318.97 286.022 302.067C286.022 285.162 272.266 271.407 255.362 271.407C238.453 271.407 224.703 285.163 224.703 302.067C224.703 318.971 238.453 332.726 255.362 332.726ZM255.362 283.678C265.503 283.678 273.756 291.927 273.756 302.072C273.756 312.218 265.503 320.466 255.362 320.466C245.222 320.466 236.968 312.213 236.968 302.072C236.968 291.927 245.222 283.678 255.362 283.678Z" fill="#606060"/>
<path d="M213.132 276.843C223.566 276.843 232.053 268.356 232.053 257.921C232.053 247.488 223.555 239 213.132 239C202.698 239 194.21 247.487 194.21 257.921C194.21 268.35 202.692 276.843 213.132 276.843ZM213.132 251.261C216.802 251.261 219.781 254.246 219.781 257.916C219.781 261.592 216.797 264.566 213.132 264.566C209.462 264.566 206.477 261.581 206.477 257.911C206.477 254.241 209.456 251.261 213.132 251.261Z" fill="#606060"/>
<path d="M696.421 469.148C692.53 469.148 689.371 465.984 689.371 462.098C689.371 458.207 692.53 455.048 696.421 455.048H841.446C849.399 455.034 855.884 448.549 855.898 440.596V266.913C855.898 263.028 859.062 259.863 862.948 259.863C866.834 259.863 869.998 263.028 869.998 266.913V440.596C869.998 448.224 867.024 455.392 861.637 460.788C856.242 466.174 849.074 469.148 841.446 469.148H696.428H696.42H696.421ZM661.171 469.148C657.28 469.148 654.121 465.984 654.121 462.098C654.121 458.207 657.28 455.048 661.171 455.048C665.057 455.048 668.221 458.207 668.221 462.098C668.221 465.984 665.057 469.148 661.171 469.148ZM628.24 461.421C626.147 461.421 624.173 460.495 622.826 458.89C618.547 453.77 616.2 447.276 616.2 440.596V433.898C616.2 432.045 616.955 430.225 618.266 428.914C619.577 427.603 621.397 426.849 623.25 426.849H640.875C642.814 426.84 644.4 425.262 644.4 423.324C644.4 421.385 642.814 419.799 640.875 419.799H623.25C621.397 419.799 619.577 419.044 618.266 417.733C616.955 416.422 616.2 414.602 616.2 412.749V391.599C616.2 389.745 616.955 387.925 618.266 386.614C619.577 385.303 621.397 384.549 623.25 384.549H640.875C642.814 384.541 644.4 382.963 644.4 381.024C644.4 379.085 642.814 377.499 640.875 377.499H623.25C621.397 377.499 619.577 376.744 618.266 375.433C616.955 374.123 616.2 372.302 616.2 370.449V349.299C616.2 347.446 616.955 345.625 618.266 344.315C619.577 343.004 621.397 342.249 623.25 342.249H640.875C642.814 342.249 644.4 340.663 644.4 338.724C644.4 336.785 642.814 335.199 640.875 335.199H623.25C621.397 335.199 619.577 334.445 618.266 333.134C616.955 331.823 616.2 330.003 616.2 328.149V306.999C616.2 305.146 616.955 303.326 618.266 302.015C619.577 300.704 621.397 299.95 623.25 299.95H640.875C642.814 299.95 644.4 298.363 644.4 296.425C644.4 294.486 642.814 292.908 640.875 292.9H629.799C625.908 292.9 622.749 289.735 622.749 285.85C622.749 281.964 625.908 278.8 629.799 278.8H640.875C645.584 278.8 650.013 280.634 653.34 283.96C656.666 287.287 658.5 291.715 658.5 296.425C658.5 301.134 656.666 305.562 653.34 308.889C650.013 312.216 645.585 314.05 640.875 314.05H630.3V321.1H640.875C645.584 321.1 650.013 322.934 653.34 326.261C656.666 329.59 658.5 334.015 658.5 338.725C658.5 343.434 656.666 347.862 653.34 351.189C650.013 354.516 645.585 356.35 640.875 356.35H630.3V363.4H640.875C645.584 363.4 650.013 365.234 653.34 368.561C656.666 371.89 658.5 376.316 658.5 381.025C658.5 385.734 656.666 390.162 653.34 393.489C650.013 396.816 645.585 398.65 640.875 398.65H630.3V405.7H640.875C645.584 405.7 650.013 407.534 653.34 410.861C656.666 414.19 658.5 418.616 658.5 423.325C658.5 428.034 656.666 432.462 653.34 435.789C650.013 439.116 645.585 440.95 640.875 440.95H630.309C630.386 444.236 631.543 447.317 633.658 449.853C634.864 451.299 635.434 453.125 635.266 455.001C635.098 456.876 634.208 458.575 632.762 459.781C631.493 460.839 629.893 461.423 628.241 461.423L628.24 461.421ZM630.802 271.749C626.916 271.749 623.752 268.585 623.752 264.699C623.752 260.813 626.916 257.649 630.802 257.649C634.693 257.649 637.851 260.813 637.851 264.699C637.851 268.585 634.693 271.749 630.802 271.749ZM648.173 253.518C646.356 253.518 644.626 252.827 643.31 251.571C642.627 250.93 641.809 250.605 640.878 250.599H623.253C621.4 250.599 619.58 249.845 618.269 248.534C616.955 247.223 616.201 245.403 616.201 243.549V222.4C616.201 220.546 616.955 218.726 618.266 217.415C619.577 216.104 621.397 215.35 623.251 215.35H640.876C642.814 215.341 644.401 213.763 644.401 211.825C644.401 209.886 642.814 208.3 640.876 208.3H623.251C621.397 208.3 619.577 207.545 618.266 206.234C616.955 204.923 616.201 203.103 616.201 201.25V194.552C616.201 186.924 619.175 179.756 624.561 174.361C629.956 168.974 637.124 166 644.753 166H841.447C849.075 166 856.243 168.974 861.638 174.361C867.025 179.755 869.999 186.924 869.999 194.552V196.414C869.999 200.305 866.835 203.464 862.949 203.464C859.063 203.464 855.899 200.305 855.899 196.414V194.552C855.885 186.599 849.4 180.114 841.447 180.1H644.753C636.849 180.114 630.504 186.304 630.309 194.2H640.876C645.585 194.2 650.013 196.034 653.34 199.361C656.667 202.687 658.501 207.115 658.501 211.825C658.501 216.534 656.666 220.962 653.34 224.289C650.013 227.616 645.585 229.45 640.876 229.45H630.301V236.5H640.884C645.444 236.5 649.76 238.227 653.037 241.372C655.848 244.051 655.956 248.526 653.276 251.341C651.93 252.743 650.118 253.519 648.173 253.519L648.173 253.518ZM862.95 238.714C859.064 238.714 855.9 235.555 855.9 231.664C855.9 227.778 859.064 224.614 862.95 224.614C866.836 224.614 870 227.778 870 231.664C870 235.555 866.836 238.714 862.95 238.714Z" fill="#B6B6B6"/>
<path d="M640.875 228.332H605.625C600.916 228.332 596.488 226.498 593.161 223.171C589.834 219.845 588 215.416 588 210.707C588 205.998 589.834 201.569 593.161 198.243C596.487 194.916 600.916 193.082 605.625 193.082H640.875C645.584 193.082 650.012 194.916 653.339 198.243C656.666 201.569 658.5 205.998 658.5 210.707C658.5 215.416 656.666 219.844 653.339 223.171C650.012 226.498 645.584 228.332 640.875 228.332ZM605.625 207.182C603.686 207.19 602.108 208.768 602.1 210.707C602.108 212.646 603.686 214.232 605.625 214.232H640.875C642.814 214.232 644.4 212.646 644.4 210.707C644.4 208.768 642.814 207.19 640.875 207.182H605.625Z" fill="#B6B6B6"/>
<path d="M640.875 271.75H605.625C600.916 271.75 596.488 269.915 593.161 266.589C589.834 263.262 588 258.834 588 254.125C588 249.415 589.834 244.987 593.161 241.66C596.487 238.333 600.916 236.499 605.625 236.499H640.875C645.584 236.499 650.012 238.334 653.339 241.66C656.666 244.987 658.5 249.415 658.5 254.125C658.5 258.834 656.666 263.262 653.339 266.589C650.012 269.916 645.584 271.75 640.875 271.75ZM605.625 250.6C603.686 250.6 602.1 252.186 602.1 254.125C602.1 256.063 603.686 257.65 605.625 257.65H640.875C642.814 257.65 644.4 256.063 644.4 254.125C644.4 252.186 642.814 250.6 640.875 250.6H605.625Z" fill="#B6B6B6"/>
<path d="M640.875 314.049H605.625C600.916 314.049 596.488 312.215 593.161 308.888C589.834 305.562 588 301.133 588 296.424C588 291.715 589.834 287.287 593.161 283.96C596.487 280.633 600.916 278.799 605.625 278.799H640.875C645.584 278.799 650.012 280.633 653.339 283.96C656.666 287.286 658.5 291.715 658.5 296.424C658.5 301.133 656.666 305.562 653.339 308.888C650.012 312.215 645.584 314.049 640.875 314.049ZM605.625 292.899C603.686 292.899 602.1 294.486 602.1 296.424C602.1 298.363 603.686 299.949 605.625 299.949H640.875C642.814 299.949 644.4 298.363 644.4 296.424C644.4 294.486 642.814 292.899 640.875 292.899H605.625Z" fill="#B6B6B6"/>
<path d="M640.875 356.349H605.625C600.916 356.349 596.488 354.515 593.161 351.188C589.834 347.862 588 343.433 588 338.724C588 334.015 589.834 329.586 593.161 326.26C596.487 322.933 600.916 321.099 605.625 321.099H640.875C645.584 321.099 650.012 322.933 653.339 326.26C656.666 329.589 658.5 334.015 658.5 338.724C658.5 343.433 656.666 347.861 653.339 351.188C650.012 354.515 645.584 356.349 640.875 356.349ZM605.625 335.199C603.686 335.199 602.1 336.785 602.1 338.724C602.1 340.663 603.686 342.241 605.625 342.249H640.875C642.814 342.241 644.4 340.663 644.4 338.724C644.4 336.785 642.814 335.199 640.875 335.199H605.625Z" fill="#B6B6B6"/>
<path d="M640.875 398.649H605.625C600.916 398.649 596.488 396.814 593.161 393.488C589.834 390.161 588 385.733 588 381.023C588 376.314 589.834 371.886 593.161 368.559C596.487 365.232 600.916 363.398 605.625 363.398H640.875C645.584 363.398 650.012 365.233 653.339 368.559C656.666 371.889 658.5 376.314 658.5 381.023C658.5 385.733 656.666 390.161 653.339 393.488C650.012 396.815 645.584 398.649 640.875 398.649ZM605.625 377.499C603.686 377.499 602.108 379.085 602.1 381.024C602.108 382.962 603.686 384.549 605.625 384.549H640.875C642.814 384.549 644.4 382.962 644.4 381.024C644.4 379.085 642.814 377.499 640.875 377.499H605.625Z" fill="#B6B6B6"/>
<path d="M640.875 440.948H605.625C600.916 440.948 596.488 439.114 593.161 435.787C589.834 432.461 588 428.033 588 423.323C588 418.614 589.834 414.186 593.161 410.859C596.487 407.532 600.916 405.698 605.625 405.698H640.875C645.584 405.698 650.012 407.532 653.339 410.859C656.666 414.188 658.5 418.614 658.5 423.323C658.5 428.033 656.666 432.461 653.339 435.787C650.012 439.114 645.584 440.948 640.875 440.948ZM605.625 419.798C603.686 419.798 602.108 421.385 602.1 423.323C602.108 425.262 603.686 426.84 605.625 426.848H640.875C642.814 426.84 644.4 425.262 644.4 423.323C644.4 421.385 642.814 419.798 640.875 419.798H605.625Z" fill="#B6B6B6"/>
<path d="M834.748 278.8H679.65C677.796 278.8 675.976 278.045 674.665 276.734C673.354 275.423 672.6 273.603 672.6 271.75V201.25C672.6 199.397 673.354 197.576 674.665 196.266C675.976 194.955 677.796 194.2 679.65 194.2H806.549C810.434 194.2 813.599 197.364 813.599 201.25C813.599 205.136 810.434 208.3 806.549 208.3H686.699V264.7H827.698V243.55C827.698 239.664 830.863 236.5 834.748 236.5C838.634 236.5 841.798 239.664 841.798 243.55V271.75C841.798 273.603 841.044 275.423 839.733 276.734C838.422 278.045 836.602 278.8 834.748 278.8ZM834.748 215.35C830.863 215.35 827.698 212.186 827.698 208.3C827.698 204.414 830.863 201.25 834.748 201.25C838.634 201.25 841.798 204.414 841.798 208.3C841.798 212.186 838.634 215.35 834.748 215.35Z" fill="#DADADA"/>
<path d="M753.66 377.499C751.776 377.499 749.945 376.731 748.634 375.384C744.065 370.73 739.455 366.522 734.986 362.454C732.568 360.248 730.277 358.161 728.035 356.038C721.027 349.384 715.612 343.488 711.955 336.397C709.22 331.082 707.838 325.461 707.852 319.703C707.852 316.106 708.543 312.611 709.917 309.313C711.242 306.118 713.139 303.249 715.549 300.798C717.953 298.339 720.781 296.4 723.945 295.031C727.222 293.621 730.701 292.902 734.267 292.902H734.281C740.395 292.831 746.075 294.72 750.243 298.19C751.468 299.198 752.583 300.297 753.663 301.561C754.748 300.299 755.863 299.198 757.083 298.19C761.25 294.72 766.953 292.831 773.05 292.902H773.064C776.638 292.902 780.114 293.621 783.391 295.031C786.563 296.4 789.391 298.339 791.801 300.798C794.214 303.252 796.108 306.113 797.433 309.313C798.807 312.612 799.498 316.109 799.498 319.703C799.512 325.464 798.13 331.082 795.39 336.397C793.126 340.795 789.975 345.088 785.465 349.896C781.433 354.176 776.95 358.257 772.204 362.586C767.784 366.612 763.207 370.771 758.697 375.381C757.375 376.73 755.541 377.499 753.66 377.499ZM734.278 306.999C731.02 307.008 727.941 308.31 725.606 310.673C723.251 313.085 721.946 316.291 721.946 319.703C721.96 323.341 722.75 326.514 724.504 329.969C726.113 333.12 728.613 336.482 732.155 340.255C735.531 343.871 739.756 347.721 744.231 351.802C747.263 354.567 750.4 357.429 753.657 360.551C756.879 357.464 759.983 354.644 762.979 351.907C765.326 349.77 767.54 347.754 769.605 345.793C776.501 339.308 780.576 334.419 782.838 329.967C784.592 326.505 785.383 323.341 785.396 319.701C785.396 316.288 784.091 313.08 781.736 310.67C779.396 308.307 776.309 307.005 773.045 306.997C771.374 306.997 769.986 307.187 768.796 307.575C767.73 307.927 766.893 308.385 765.99 309.112C764.101 310.621 762.085 313.559 759.989 317.869C758.797 320.301 756.373 321.81 753.658 321.81C750.951 321.81 748.528 320.301 747.335 317.869C745.707 314.534 744.149 312.039 742.703 310.439C741.307 308.908 740.18 308.14 738.528 307.578C737.338 307.19 735.95 306.999 734.279 306.999L734.278 306.999Z" fill="#C93F9A"/>
<path d="M834.748 405.699H679.65C675.764 405.699 672.6 402.534 672.6 398.649C672.6 394.763 675.764 391.599 679.65 391.599H834.748C838.634 391.599 841.798 394.763 841.798 398.649C841.798 402.534 838.634 405.699 834.748 405.699Z" fill="#727272"/>
<path d="M834.748 433.898H679.65C675.764 433.898 672.6 430.734 672.6 426.848C672.6 422.963 675.764 419.798 679.65 419.798H834.748C838.634 419.798 841.798 422.963 841.798 426.848C841.798 430.734 838.634 433.898 834.748 433.898Z" fill="#727272"/>
<path d="M834.749 236.5H721.95C718.064 236.5 714.9 233.336 714.9 229.45C714.9 225.564 718.064 222.4 721.95 222.4H834.749C838.634 222.4 841.799 225.564 841.799 229.45C841.799 233.336 838.634 236.5 834.749 236.5Z" fill="#3FA4C9"/>
<path d="M700.799 236.5C698.946 236.5 697.126 235.745 695.815 234.434C694.504 233.124 693.749 231.303 693.749 229.45C693.749 227.597 694.504 225.776 695.815 224.465C697.126 223.155 698.946 222.4 700.799 222.4C702.653 222.4 704.473 223.155 705.784 224.465C707.095 225.776 707.849 227.597 707.849 229.45C707.849 231.303 707.095 233.124 705.784 234.434C704.473 235.745 702.653 236.5 700.799 236.5Z" fill="#08C3FE"/>
</g>
<defs>
<clipPath id="clip0_309_27079">
<rect width="1041.28" height="554.141" fill="white"/>
</clipPath>
</defs>
</svg>
